<?xml version="1.0" encoding="utf-8"?>
<!-- Generator: Adobe Illustrator 22.1.0, SVG Export Plug-In . SVG Version: 6.00 Build 0)  -->
<svg version="1.1" id="Layer_1" xmlns="http://www.w3.org/2000/svg" xmlns:xlink="http://www.w3.org/1999/xlink" x="0px" y="0px"
	 viewBox="0 0 35 35" style="enable-background:new 0 0 35 35;" xml:space="preserve">
<style type="text/css">
	.st0{fill:#8E101A;}
</style>
<circle class="st0" cx="17.5" cy="17.5" r="8"/>
<circle class="st0" cx="17.5" cy="17.5" r="8"/>
<circle class="st0" cx="17.5" cy="17.5" r="8"/>
<path class="st0" d="M17.5,2.9C9.4,2.9,2.9,9.4,2.9,17.5c0,8,6.5,14.6,14.6,14.6c8,0,14.6-6.5,14.6-14.6C32,9.4,25.5,2.9,17.5,2.9z
	 M17.5,30.1c-7,0-12.6-5.6-12.6-12.6c0-7,5.6-12.6,12.6-12.6c7,0,12.6,5.6,12.6,12.6C30.1,24.5,24.4,30.1,17.5,30.1z"/>
</svg>
