<?xml version="1.0" encoding="utf-8"?>
<!-- Generator: Adobe Illustrator 22.1.0, SVG Export Plug-In . SVG Version: 6.00 Build 0)  -->
<svg version="1.1" id="Layer_1" xmlns="http://www.w3.org/2000/svg" xmlns:xlink="http://www.w3.org/1999/xlink" x="0px" y="0px"
	 viewBox="0 0 612 792" style="enable-background:new 0 0 612 792;" xml:space="preserve">
<style type="text/css">
	.st0{fill:#8E101A;}
	.st1{fill:none;}
	.st2{fill:#FFFFFF;}
	.st3{font-family:'SegoeUI';}
	.st4{font-size:39px;}
</style>
<circle class="st0" cx="222" cy="456.6" r="20.7"/>
<circle class="st0" cx="222" cy="456.6" r="20.7"/>
<circle class="st0" cx="222" cy="456.6" r="20.7"/>
<path class="st0" d="M222,418.6c-21,0-37.9,17-37.9,37.9c0,20.9,17,37.9,37.9,37.9c20.9,0,37.9-17,37.9-37.9
	C260,435.6,243,418.6,222,418.6z M222,489.3c-18.1,0-32.8-14.7-32.8-32.8c0-18.1,14.7-32.8,32.8-32.8c18.1,0,32.8,14.7,32.8,32.8
	C254.8,474.7,240.1,489.3,222,489.3z"/>
<rect x="211.4" y="441.1" class="st1" width="31.4" height="34.2"/>
<text transform="matrix(1 0 0 1 211.3553 470.0008)" class="st2 st3 st4">B</text>
</svg>
