<?xml version="1.0" encoding="utf-8"?>
<!-- Generator: Adobe Illustrator 22.1.0, SVG Export Plug-In . SVG Version: 6.00 Build 0)  -->
<svg version="1.1" id="Layer_1" xmlns="http://www.w3.org/2000/svg" xmlns:xlink="http://www.w3.org/1999/xlink" x="0px" y="0px"
	 viewBox="0 0 216 648" style="enable-background:new 0 0 216 648;" xml:space="preserve">
<style type="text/css">
	.st0{fill:#F4F3FF;}
	.st1{fill:none;}
	.st2{fill:#1A1A1A;}
	.st3{font-family:'SegoeUI-Bold';}
	.st4{font-size:28px;}
	.st5{fill:#D63026;}
	.st6{opacity:0.5;fill:#FFFFFF;}
	.st7{fill:#A50025;}
	.st8{fill:#FDAE61;}
	.st9{fill:#F46E43;}
	.st10{fill:#FFFFBF;}
	.st11{fill:#FEE08B;}
	.st12{fill:#A6D96A;}
	.st13{fill:#D9EE8B;}
	.st14{fill:#199850;}
	.st15{fill:#66BC63;}
	.st16{fill:#84B49B;}
	.st17{fill:#006837;}
	.st18{fill:#CCE0D6;}
	.st19{font-size:24px;}
</style>
<rect x="1.7" y="1.5" class="st0" width="213.5" height="43.4"/>
<rect x="16.9" y="13" class="st1" width="176.6" height="23.4"/>
<text transform="matrix(1 0 0 1 59.4245 33.6874)" class="st2 st3 st4">pm 2.5</text>
<rect x="1.7" y="94.4" class="st5" width="213.5" height="43.4"/>
<polygon class="st6" points="1.7,137.9 103.9,137.9 142.8,94.4 1.7,94.4 "/>
<rect x="1.7" y="47.9" class="st7" width="213.5" height="43.4"/>
<polygon class="st6" points="1.7,91.4 103.9,91.4 142.8,47.9 1.7,47.9 "/>
<rect x="1.7" y="187" class="st8" width="213.5" height="43.4"/>
<polygon class="st6" points="1.7,230.4 103.9,230.4 142.8,187 1.7,187 "/>
<rect x="1.7" y="140.5" class="st9" width="213.5" height="43.4"/>
<polygon class="st6" points="1.7,183.9 103.9,183.9 142.8,140.5 1.7,140.5 "/>
<rect x="1.7" y="280" class="st10" width="213.5" height="43.4"/>
<polygon class="st6" points="1.7,323.4 103.9,323.4 142.8,280 1.7,280 "/>
<rect x="1.7" y="233.5" class="st11" width="213.5" height="43.4"/>
<polygon class="st6" points="1.7,276.9 103.9,276.9 142.8,233.5 1.7,233.5 "/>
<rect x="1.7" y="372.3" class="st12" width="213.5" height="43.4"/>
<polygon class="st6" points="1.7,415.7 103.9,415.7 142.8,372.3 1.7,372.3 "/>
<rect x="1.7" y="325.8" class="st13" width="213.5" height="43.4"/>
<polygon class="st6" points="1.7,369.2 103.9,369.2 142.8,325.8 1.7,325.8 "/>
<rect x="1.7" y="464.8" class="st14" width="213.5" height="43.4"/>
<polygon class="st6" points="1.7,508.2 103.9,508.2 142.8,464.8 1.7,464.8 "/>
<rect x="1.7" y="418.3" class="st15" width="213.5" height="43.4"/>
<polygon class="st6" points="1.7,461.7 103.9,461.7 142.8,418.3 1.7,418.3 "/>
<rect x="1.7" y="557.8" class="st16" width="213.5" height="43.4"/>
<polygon class="st6" points="1.7,601.2 103.9,601.2 142.8,557.8 1.7,557.8 "/>
<rect x="1.7" y="511.3" class="st17" width="213.5" height="43.4"/>
<polygon class="st6" points="1.7,554.7 103.9,554.7 142.8,511.3 1.7,511.3 "/>
<rect x="1.7" y="604.3" class="st18" width="213.5" height="43.4"/>
<polygon class="st6" points="1.7,647.7 103.9,647.7 142.8,604.3 1.7,604.3 "/>
<g>
	<text transform="matrix(1 0 0 1 6.2945 124.5974)" class="st2 st3 st19">250 - 350</text>
	<text transform="matrix(1 0 0 1 7.2945 77.1034)" class="st2 st3 st19">350 (+)</text>
	<text transform="matrix(1 0 0 1 6.2947 171.0391)" class="st2 st3 st19">150 - 250</text>
	<text transform="matrix(1 0 0 1 6.2949 217.7794)" class="st2 st3 st19">55 - 150</text>
	<text transform="matrix(1 0 0 1 6.2941 265.8313)" class="st2 st3 st19">49 - 55</text>
	<text transform="matrix(1 0 0 1 6.2941 311.8833)" class="st2 st3 st19">42 - 49</text>
	<text transform="matrix(1 0 0 1 6.2948 358.2012)" class="st2 st3 st19">35 - 42</text>
	<text transform="matrix(1 0 0 1 6.2941 404.0911)" class="st2 st3 st19">28 - 35</text>
	<text transform="matrix(1 0 0 1 6.295 448.5976)" class="st2 st3 st19">20 - 28</text>
	<text transform="matrix(1 0 0 1 6.2949 495.3508)" class="st2 st3 st19">12 - 20</text>
	<text transform="matrix(1 0 0 1 6.295 544.7014)" class="st2 st3 st19">8 - 12</text>
	<text transform="matrix(1 0 0 1 6.2941 588.8573)" class="st2 st3 st19">4 - 8</text>
	<text transform="matrix(1 0 0 1 6.295 635.6105)" class="st2 st3 st19">4 (-)</text>
</g>
</svg>
